<?xml version="1.0" encoding="utf-8"?>
<!-- Generator: Adobe Illustrator 23.0.1, SVG Export Plug-In . SVG Version: 6.00 Build 0)  -->
<svg version="1.1" id="Layer_1" xmlns="http://www.w3.org/2000/svg" xmlns:xlink="http://www.w3.org/1999/xlink" x="0px" y="0px"
	 viewBox="0 0 1000 1000" style="enable-background:new 0 0 1000 1000;" xml:space="preserve">
<style type="text/css">
	.st0{fill:#333333;}
	.st1{fill:url(#SVGID_1_);}
	.st2{fill:url(#SVGID_2_);}
	.st3{fill:url(#SVGID_3_);}
	.st4{fill:url(#SVGID_4_);}
	.st5{fill:url(#SVGID_5_);}
	.st6{fill:url(#SVGID_6_);}
	.st7{fill:url(#SVGID_7_);}
	.st8{fill:url(#SVGID_8_);}
	.st9{fill:url(#SVGID_9_);}
	.st10{fill:#29456D;}
	.st11{fill:url(#SVGID_10_);}
	.st12{fill:url(#SVGID_11_);}
	.st13{fill:#FFFFFF;}
	.st14{fill:url(#SVGID_12_);}
	.st15{fill:url(#SVGID_13_);}
	.st16{fill:url(#SVGID_14_);}
	.st17{fill:url(#SVGID_15_);}
	.st18{fill:url(#SVGID_16_);}
	.st19{fill:url(#SVGID_17_);}
	.st20{fill:url(#SVGID_18_);}
	.st21{fill:url(#SVGID_19_);}
	.st22{fill:url(#SVGID_20_);}
	.st23{fill:#000B26;}
	.st24{fill:url(#SVGID_21_);}
	.st25{fill:url(#SVGID_22_);}
</style>
<g>
	<g>
		<path class="st0" d="M554.8,550.7l-4.2-15.1h2.1l3.5,12.4l3.7-12.4h2l3.7,12.4l3.5-12.4h2l-4.2,15.1h-2.3l-3.6-12.1l-3.6,12.1
			H554.8z"/>
		<path class="st0" d="M573,546.2c0.2,1,0.6,1.7,1.3,2.2c0.7,0.5,1.6,0.8,2.6,0.8c1.4,0,2.5-0.5,3.1-1.6l1.6,0.9
			c-1.1,1.6-2.6,2.4-4.7,2.4c-1.7,0-3.1-0.5-4.2-1.6c-1.1-1.1-1.6-2.4-1.6-4.1c0-1.6,0.5-3,1.6-4.1c1-1.1,2.4-1.6,4.1-1.6
			c1.6,0,2.9,0.6,3.9,1.7c1,1.1,1.5,2.5,1.5,4c0,0.3,0,0.6-0.1,0.8H573z M576.8,541.4c-1,0-1.8,0.3-2.5,0.9
			c-0.7,0.6-1.1,1.3-1.2,2.3h7.2c-0.2-1-0.6-1.8-1.2-2.3C578.4,541.6,577.6,541.4,576.8,541.4z"/>
		<path class="st0" d="M602.4,539.9h1.8l-3.1,10.8h-1.9l-2.6-8.1l-2.6,8.1h-2l-3.2-10.8h2l2.4,8.2l2.5-8.2h1.9l2.5,8.2L602.4,539.9z
			"/>
		<path class="st0" d="M607.2,546.2c0.2,1,0.6,1.7,1.3,2.2c0.7,0.5,1.6,0.8,2.6,0.8c1.4,0,2.5-0.5,3.1-1.6l1.6,0.9
			c-1.1,1.6-2.6,2.4-4.7,2.4c-1.7,0-3.1-0.5-4.2-1.6c-1.1-1.1-1.6-2.4-1.6-4.1c0-1.6,0.5-3,1.6-4.1c1-1.1,2.4-1.6,4.1-1.6
			c1.6,0,2.9,0.6,3.9,1.7c1,1.1,1.5,2.5,1.5,4c0,0.3,0,0.6-0.1,0.8H607.2z M610.9,541.4c-1,0-1.8,0.3-2.5,0.9
			c-0.7,0.6-1.1,1.3-1.2,2.3h7.2c-0.2-1-0.6-1.8-1.2-2.3C612.6,541.6,611.8,541.4,610.9,541.4z"/>
		<path class="st0" d="M624.4,539.6c1.5,0,2.8,0.6,3.9,1.7c1.1,1.1,1.6,2.4,1.6,4c0,1.6-0.5,2.9-1.6,4c-1.1,1.1-2.4,1.7-3.9,1.7
			c-1.8,0-3.1-0.7-4.1-2.1v1.9h-1.9v-15.1h1.9v6.2C621.3,540.3,622.6,539.6,624.4,539.6z M624.2,549.2c1.1,0,2-0.4,2.7-1.1
			c0.7-0.7,1.1-1.7,1.1-2.8c0-1.1-0.4-2-1.1-2.8c-0.7-0.7-1.6-1.1-2.7-1.1c-1.1,0-2,0.4-2.7,1.1c-0.7,0.7-1.1,1.7-1.1,2.8
			c0,1.1,0.4,2,1.1,2.8C622.2,548.8,623.1,549.2,624.2,549.2z"/>
		<path class="st0" d="M639.4,541.7c0.6-1.3,1.7-2,3.4-2v2c-0.9,0-1.7,0.2-2.4,0.7c-0.7,0.5-1,1.4-1,2.6v5.7h-1.9v-10.8h1.9V541.7z"
			/>
		<path class="st0" d="M645.4,546.2c0.2,1,0.6,1.7,1.3,2.2c0.7,0.5,1.6,0.8,2.6,0.8c1.4,0,2.5-0.5,3.1-1.6l1.6,0.9
			c-1.1,1.6-2.6,2.4-4.7,2.4c-1.7,0-3.1-0.5-4.2-1.6c-1.1-1.1-1.6-2.4-1.6-4.1c0-1.6,0.5-3,1.6-4.1c1-1.1,2.4-1.6,4.1-1.6
			c1.6,0,2.9,0.6,3.9,1.7c1,1.1,1.5,2.5,1.5,4c0,0.3,0,0.6-0.1,0.8H645.4z M649.1,541.4c-1,0-1.8,0.3-2.5,0.9
			c-0.7,0.6-1.1,1.3-1.2,2.3h7.2c-0.2-1-0.6-1.8-1.2-2.3C650.7,541.6,649.9,541.4,649.1,541.4z"/>
		<path class="st0" d="M665.5,539.9h1.9v10.8h-1.9v-1.9c-0.9,1.4-2.3,2.1-4.1,2.1c-1.5,0-2.8-0.6-3.9-1.7c-1.1-1.1-1.6-2.4-1.6-4
			c0-1.6,0.5-2.9,1.6-4c1.1-1.1,2.4-1.7,3.9-1.7c1.8,0,3.1,0.7,4.1,2.1V539.9z M661.7,549.2c1.1,0,2-0.4,2.7-1.1
			c0.7-0.7,1.1-1.7,1.1-2.8c0-1.1-0.4-2-1.1-2.8c-0.7-0.7-1.6-1.1-2.7-1.1c-1.1,0-2,0.4-2.7,1.1c-0.7,0.7-1.1,1.7-1.1,2.8
			c0,1.1,0.4,2,1.1,2.8C659.7,548.8,660.6,549.2,661.7,549.2z"/>
		<path class="st0" d="M670.3,550.7v-15.8h1.9v15.8H670.3z"/>
		<path class="st0" d="M675,550.7v-15.8h1.9v15.8H675z"/>
		<path class="st0" d="M687.3,539.9h2l-4.4,11.5c-0.5,1.2-1.1,2.2-1.9,2.8c-0.8,0.6-1.8,0.9-2.9,0.9v-1.7c1.3,0.1,2.3-0.6,2.9-2.2
			l0.2-0.4l-4.7-10.7h2l3.6,8.3L687.3,539.9z"/>
		<path class="st0" d="M709,539.9h1.8l-3.1,10.8h-1.9l-2.6-8.1l-2.6,8.1h-2l-3.2-10.8h2l2.4,8.2l2.5-8.2h1.9l2.5,8.2L709,539.9z"/>
		<path class="st0" d="M713.8,546.2c0.2,1,0.6,1.7,1.3,2.2c0.7,0.5,1.6,0.8,2.6,0.8c1.4,0,2.5-0.5,3.1-1.6l1.6,0.9
			c-1.1,1.6-2.6,2.4-4.7,2.4c-1.7,0-3.1-0.5-4.2-1.6c-1.1-1.1-1.6-2.4-1.6-4.1c0-1.6,0.5-3,1.6-4.1c1-1.1,2.4-1.6,4.1-1.6
			c1.6,0,2.9,0.6,3.9,1.7c1,1.1,1.5,2.5,1.5,4c0,0.3,0,0.6-0.1,0.8H713.8z M717.5,541.4c-1,0-1.8,0.3-2.5,0.9
			c-0.7,0.6-1.1,1.3-1.2,2.3h7.2c-0.2-1-0.6-1.8-1.2-2.3C719.1,541.6,718.4,541.4,717.5,541.4z"/>
		<path class="st0" d="M725,550.7v-15.8h1.9v15.8H725z"/>
		<path class="st0" d="M729.8,550.7v-15.8h1.9v15.8H729.8z"/>
	</g>
	<polygon class="st0" points="346.2,503.3 329.7,445 316.2,445 299.8,503.4 284.6,445 268.3,445 289.2,523.8 307.9,523.8 
		322.8,471.5 337.7,523.8 355.4,523.8 376.1,445 361.1,445 	"/>
	<path class="st0" d="M446.3,445h-14.5v50.7h14.5V445z"/>
	<path class="st0" d="M515.5,445H501v59.9c0,7.7,2.1,13.1,6.1,16.1c4.1,3,11.1,3.9,21.1,2.8v-13.2c-2.8,0.2-5.1,0.2-7,0.1
		c-1.9-0.1-3.3-0.6-4.3-1.5c-1-0.9-1.5-2.3-1.5-4.3v-23.4c7,0,12.7-5.7,12.7-12.7v-1.2h-12.7V445z"/>
	<polygon class="st0" points="593.3,502.2 583,467.5 569.3,467.5 559,502.1 549.4,467.5 534,467.5 550.5,523.8 564.8,523.8 
		575.4,489.7 586.1,523.8 600.3,523.8 616.8,467.5 602.8,467.5 	"/>
	<path class="st0" d="M650.7,465.9c-8.7,0-15.8,2.8-21.4,8.5c-5.6,5.7-8.3,12.7-8.3,21.2c0,8.6,2.8,15.7,8.4,21.3
		c5.6,5.6,13.1,8.4,22.4,8.4c10.8,0,19-4,24.6-12.1l-11.7-6.8c-2.9,3.8-7.1,5.6-12.6,5.6c-8.6,0-13.9-3.5-15.9-10.6h42.5
		c0.4-2.1,0.6-4.1,0.6-6c0-8.4-2.7-15.5-8.1-21.2C665.8,468.8,658.9,465.9,650.7,465.9z M635.9,490.4c0.8-3.6,2.5-6.4,5.1-8.4
		c2.6-2,5.8-3,9.7-3c3.3,0,6.3,0.9,8.8,2.8c2.6,1.9,4.3,4.7,5.1,8.6H635.9z"/>
	<rect x="689.3" y="445" class="st0" width="14.5" height="78.8"/>
	<rect x="717.1" y="445" class="st0" width="14.5" height="78.8"/>
	<path class="st0" d="M461.9,465.5c-16.6,0-30.1,13.5-30.1,30.1c0,16.6,13.5,30.1,30.1,30.1s30.1-13.5,30.1-30.1
		C492,479,478.5,465.5,461.9,465.5z M461.9,511.3c-8.6,0-15.6-7-15.6-15.6c0-8.6,7-15.6,15.6-15.6s15.6,7,15.6,15.6
		C477.5,504.3,470.5,511.3,461.9,511.3z"/>
	<path class="st0" d="M416.8,504.7c-5.5,6.6-10.9,8.5-17.5,5.5l27.1-32.7c-1.4-1.6-2.8-3-4.2-4.2c-6.5-5.4-13.6-7.8-21.4-7.3
		c-7.8,0.5-14.4,3.9-19.6,10.3c-5.6,6.7-7.9,14-7.1,21.9c0.8,7.9,4.5,14.6,11,20c6.6,5.5,13.8,7.8,21.8,7.1
		c7.9-0.7,14.9-4.7,20.8-11.9l22.5-27.8l-11.7-8.6L416.8,504.7z M390.4,503.2c-2.2-2.9-3.3-6-3.2-9.3c0.1-3.2,1.4-6.4,3.9-9.4
		c2.1-2.5,4.7-4.2,7.8-5c3.1-0.8,6.4-0.3,9.9,1.5L390.4,503.2z"/>
	<radialGradient id="SVGID_1_" cx="423.6823" cy="487.4944" r="54.6765" gradientUnits="userSpaceOnUse">
		<stop  offset="9.625669e-02" style="stop-color:#000000"/>
		<stop  offset="1" style="stop-color:#000000;stop-opacity:0"/>
	</radialGradient>
	<path class="st1" d="M475.8,502.8c-2.6,5-7.8,8.5-13.9,8.5c-8.6,0-15.6-7-15.6-15.6c0-3.7,1.3-7.1,3.5-9.8l-16.2,20
		c4.2,11.6,15.3,19.9,28.3,19.9c11.4,0,21.3-6.3,26.4-15.6L475.8,502.8z"/>
	<radialGradient id="SVGID_2_" cx="445.3063" cy="502.1877" r="56.3785" gradientUnits="userSpaceOnUse">
		<stop  offset="9.625669e-02" style="stop-color:#000000"/>
		<stop  offset="1" style="stop-color:#000000;stop-opacity:0"/>
	</radialGradient>
	<path class="st2" d="M438.3,476.9c2.2-2.8,4.9-5.2,8-7.1V445h-14.5v40.4C434.4,482,436.8,478.9,438.3,476.9z"/>
	<radialGradient id="SVGID_3_" cx="327.2835" cy="521.7643" r="65.6755" gradientUnits="userSpaceOnUse">
		<stop  offset="9.625669e-02" style="stop-color:#000000"/>
		<stop  offset="1" style="stop-color:#000000;stop-opacity:0"/>
	</radialGradient>
	<path class="st3" d="M346.2,503.3c0,0,6.5,22.9,9.2,20.5l20.7-78.8h-15L346.2,503.3z"/>
	<radialGradient id="SVGID_4_" cx="281.263" cy="522.1802" r="60.6816" gradientUnits="userSpaceOnUse">
		<stop  offset="9.625669e-02" style="stop-color:#000000"/>
		<stop  offset="1" style="stop-color:#000000;stop-opacity:0"/>
	</radialGradient>
	<path class="st4" d="M299.8,503.4c0,0,5,20.4,8.2,20.4l14.8-52.3l-6.6-26.5L299.8,503.4z"/>
	<radialGradient id="SVGID_5_" cx="497.01" cy="461.5732" r="58.1224" gradientUnits="userSpaceOnUse">
		<stop  offset="9.625669e-02" style="stop-color:#000000"/>
		<stop  offset="1" style="stop-color:#000000;stop-opacity:0"/>
	</radialGradient>
	<path class="st5" d="M528.3,510.7v13.2c-10,1.1-17,0.2-21.1-2.8c-4.1-3-6.1-8.4-6.1-16.1v-12c0-6.3,5.1-11.4,11.4-11.4h3.1v23.4
		c0,1.9,0.5,3.4,1.5,4.3c1,0.9,2.4,1.4,4.3,1.5C523.1,510.8,525.5,510.8,528.3,510.7z"/>
	<radialGradient id="SVGID_6_" cx="545.2484" cy="519.6533" r="48.1574" gradientUnits="userSpaceOnUse">
		<stop  offset="9.625669e-02" style="stop-color:#000000"/>
		<stop  offset="1" style="stop-color:#000000;stop-opacity:0"/>
	</radialGradient>
	<polygon class="st6" points="559,502.1 564.8,523.8 575.4,489.7 569.3,467.5 	"/>
	<radialGradient id="SVGID_7_" cx="572.0012" cy="518.683" r="60.3087" gradientUnits="userSpaceOnUse">
		<stop  offset="9.625669e-02" style="stop-color:#000000"/>
		<stop  offset="1" style="stop-color:#000000;stop-opacity:0"/>
	</radialGradient>
	<polygon class="st7" points="593.3,502.2 600.3,523.8 616.8,467.5 602.8,467.5 	"/>
	<radialGradient id="SVGID_8_" cx="624.2132" cy="533.1915" r="58.3637" gradientUnits="userSpaceOnUse">
		<stop  offset="9.625669e-02" style="stop-color:#000000"/>
		<stop  offset="1" style="stop-color:#000000;stop-opacity:0"/>
	</radialGradient>
	<path class="st8" d="M676.4,513.4l-11.7-6.8c-2.9,3.8-7.1,5.6-12.6,5.6c-8.6,0-13.9-3.5-15.9-10.6c0,0-2.3,25.1,26.3,22.2
		C668.2,522,672.8,518.5,676.4,513.4z"/>
	<radialGradient id="SVGID_9_" cx="381.543" cy="518.8909" r="46.8258" gradientUnits="userSpaceOnUse">
		<stop  offset="9.625669e-02" style="stop-color:#000000"/>
		<stop  offset="1" style="stop-color:#000000;stop-opacity:0"/>
	</radialGradient>
	<path class="st9" d="M408.8,481.1l-18.3,22.1c0,0,5.1,5.8,8.8,7l27.1-32.7L408.8,481.1z"/>
	<g>
		<path class="st0" d="M541,544.9h-38.9c-0.4,0-0.7-0.3-0.7-0.7s0.3-0.7,0.7-0.7H541c0.4,0,0.7,0.3,0.7,0.7S541.3,544.9,541,544.9z"
			/>
	</g>
</g>
</svg>
