<?xml version="1.0" encoding="utf-8"?>
<!-- Generator: Adobe Illustrator 23.0.1, SVG Export Plug-In . SVG Version: 6.00 Build 0)  -->
<svg version="1.1" id="Layer_1" xmlns="http://www.w3.org/2000/svg" xmlns:xlink="http://www.w3.org/1999/xlink" x="0px" y="0px"
	 viewBox="0 0 1000 1000" style="enable-background:new 0 0 1000 1000;" xml:space="preserve">
<style type="text/css">
	.st0{fill:#333333;}
	.st1{fill:url(#SVGID_1_);}
	.st2{fill:url(#SVGID_2_);}
	.st3{fill:url(#SVGID_3_);}
	.st4{fill:url(#SVGID_4_);}
	.st5{fill:url(#SVGID_5_);}
	.st6{fill:url(#SVGID_6_);}
	.st7{fill:url(#SVGID_7_);}
	.st8{fill:url(#SVGID_8_);}
	.st9{fill:url(#SVGID_9_);}
	.st10{fill:#29456D;}
	.st11{fill:url(#SVGID_10_);}
	.st12{fill:url(#SVGID_11_);}
	.st13{fill:#FFFFFF;}
	.st14{fill:url(#SVGID_12_);}
	.st15{fill:url(#SVGID_13_);}
	.st16{fill:url(#SVGID_14_);}
	.st17{fill:url(#SVGID_15_);}
	.st18{fill:url(#SVGID_16_);}
	.st19{fill:url(#SVGID_17_);}
	.st20{fill:url(#SVGID_18_);}
	.st21{fill:url(#SVGID_19_);}
	.st22{fill:url(#SVGID_20_);}
	.st23{fill:#000B26;}
	.st24{fill:url(#SVGID_21_);}
	.st25{fill:url(#SVGID_22_);}
</style>
<g>
	<g>
		<path class="st10" d="M400.5,466.2c-8.9,0-16.1,2.9-21.8,8.6c-5.7,5.8-8.5,12.9-8.5,21.5c0,8.7,2.9,15.9,8.6,21.6
			c5.7,5.7,13.2,8.5,22.6,8.5c11.1,0,19.4-4.2,25.1-12.5l-10.2-6c-3.3,4.7-8.2,7.1-14.8,7.1c-4.7,0-8.7-1.2-12-3.5
			c-3.3-2.3-5.4-5.7-6.3-10h45.6c0.3-2.1,0.5-3.9,0.5-5.2c0-8.4-2.7-15.5-8.1-21.4C415.8,469.2,408.9,466.2,400.5,466.2z
			 M383.1,491.5c0.8-4.4,2.8-7.8,5.8-10.3c3.1-2.5,6.9-3.8,11.5-3.8c4,0,7.6,1.2,10.6,3.5c3,2.4,4.9,5.9,5.8,10.5H383.1z"/>
		<path class="st10" d="M472.5,466.2c-8.7,0-15.4,3.2-20,9.6v-31h-12.4V525h12.4v-8.2c4.7,6.5,11.3,9.7,20,9.7
			c7.9,0,14.6-2.9,20.2-8.8c5.6-5.8,8.4-13,8.4-21.4c0-8.5-2.8-15.6-8.4-21.4C487.1,469.1,480.4,466.2,472.5,466.2z M483.5,509.4
			c-3.4,3.5-7.8,5.2-12.9,5.2c-5.2,0-9.5-1.7-12.9-5.2c-3.4-3.5-5.2-7.8-5.2-13.1c0-5.3,1.7-9.6,5.2-13.1c3.4-3.5,7.7-5.2,12.9-5.2
			c5.2,0,9.5,1.7,12.9,5.2c3.4,3.5,5.2,7.8,5.2,13.1C488.6,501.6,486.9,506,483.5,509.4z"/>
		<path class="st10" d="M523.8,451.7l-12.4,3.7v51.8c0,7.5,2.1,12.6,6.2,15.4c4.1,2.8,10.9,3.6,20.4,2.5v-11.1
			c-3.1,0.2-5.7,0.2-7.8,0.1s-3.7-0.7-4.8-1.7c-1.1-1-1.6-2.7-1.6-5.1v-27.5h21.6v-11.9h-21.6V451.7z"/>
		<polygon class="st10" points="598.4,507.2 586.5,467.7 574.6,467.7 562.6,507.2 551.5,467.7 538.4,467.7 555.1,525 568.2,525 
			580.3,485.9 592.5,525 604.6,525 622.6,467.7 609.6,467.7 		"/>
		<path class="st10" d="M656.5,466.2c-8.9,0-16.1,2.9-21.8,8.6c-5.7,5.8-8.5,12.9-8.5,21.5c0,8.7,2.9,15.9,8.6,21.6
			c5.7,5.7,13.2,8.5,22.6,8.5c11.1,0,19.4-4.2,25.1-12.5l-10.2-6c-3.3,4.7-8.2,7.1-14.8,7.1c-4.7,0-8.7-1.2-12-3.5
			c-3.3-2.3-5.4-5.7-6.3-10h45.6c0.3-2.1,0.5-3.9,0.5-5.2c0-8.4-2.7-15.5-8.1-21.4C671.8,469.2,664.9,466.2,656.5,466.2z
			 M639.1,491.5c0.8-4.4,2.8-7.8,5.8-10.3c3.1-2.5,6.9-3.8,11.5-3.8c4,0,7.6,1.2,10.6,3.5c3,2.4,4.9,5.9,5.8,10.5H639.1z"/>
		<rect x="696.1" y="444.8" class="st10" width="12.4" height="80.2"/>
		<rect x="722.8" y="444.8" class="st10" width="12.4" height="80.2"/>
		<linearGradient id="SVGID_1_" gradientUnits="userSpaceOnUse" x1="340.9099" y1="526.7497" x2="371.4102" y2="442.9509">
			<stop  offset="0" style="stop-color:#00A2CB"/>
			<stop  offset="1" style="stop-color:#00EDCB"/>
		</linearGradient>
		<polygon class="st1" points="336,525 362.7,444.8 376.5,444.8 349.6,525 		"/>
		<linearGradient id="SVGID_2_" gradientUnits="userSpaceOnUse" x1="302.6969" y1="526.7936" x2="328.43" y2="456.0925">
			<stop  offset="0" style="stop-color:#00A2CB"/>
			<stop  offset="1" style="stop-color:#00EDCB"/>
		</linearGradient>
		<polygon class="st2" points="321.4,453.5 297.7,525 311.3,525 328.3,474.1 		"/>
		<polygon class="st10" points="349.6,525 323,444.8 309.2,444.8 336,525 		"/>
		<polygon class="st10" points="311.3,525 284.6,444.8 270.8,444.8 297.7,525 		"/>
	</g>
	<g>
		<path class="st10" d="M534.3,554.3l-4.8-17.2h2.4l3.9,14.1l4.2-14.1h2.3l4.2,14.1l3.9-14.1h2.3l-4.8,17.2h-2.6l-4.1-13.7
			l-4.1,13.7H534.3z"/>
		<path class="st10" d="M555.1,549.1c0.2,1.1,0.7,1.9,1.5,2.5c0.8,0.6,1.8,0.9,2.9,0.9c1.6,0,2.8-0.6,3.5-1.8l1.8,1
			c-1.2,1.8-3,2.8-5.4,2.8c-1.9,0-3.5-0.6-4.7-1.8c-1.2-1.2-1.8-2.8-1.8-4.6c0-1.8,0.6-3.4,1.8-4.6c1.2-1.2,2.7-1.8,4.6-1.8
			c1.8,0,3.3,0.6,4.4,1.9c1.1,1.3,1.7,2.8,1.7,4.6c0,0.3,0,0.6-0.1,1H555.1z M559.3,543.7c-1.1,0-2.1,0.3-2.8,1
			c-0.8,0.6-1.2,1.5-1.4,2.6h8.2c-0.2-1.2-0.6-2-1.4-2.6C561.1,544,560.3,543.7,559.3,543.7z"/>
		<path class="st10" d="M588.4,542h2l-3.6,12.3h-2.2l-2.9-9.2l-2.9,9.2h-2.3L573,542h2.2l2.7,9.3l2.9-9.3h2.1l2.9,9.3L588.4,542z"/>
		<path class="st10" d="M593.9,549.1c0.2,1.1,0.7,1.9,1.5,2.5c0.8,0.6,1.8,0.9,2.9,0.9c1.6,0,2.8-0.6,3.5-1.8l1.8,1
			c-1.2,1.8-3,2.8-5.4,2.8c-1.9,0-3.5-0.6-4.7-1.8c-1.2-1.2-1.8-2.8-1.8-4.6c0-1.8,0.6-3.4,1.8-4.6c1.2-1.2,2.7-1.8,4.6-1.8
			c1.8,0,3.3,0.6,4.4,1.9c1.1,1.3,1.7,2.8,1.7,4.6c0,0.3,0,0.6-0.1,1H593.9z M598.1,543.7c-1.1,0-2.1,0.3-2.8,1
			c-0.8,0.6-1.2,1.5-1.4,2.6h8.2c-0.2-1.2-0.6-2-1.4-2.6C599.9,544,599.1,543.7,598.1,543.7z"/>
		<path class="st10" d="M613.4,541.7c1.7,0,3.2,0.6,4.4,1.9c1.2,1.3,1.8,2.8,1.8,4.6c0,1.8-0.6,3.3-1.8,4.6
			c-1.2,1.2-2.7,1.9-4.4,1.9c-2,0-3.6-0.8-4.6-2.4v2.1h-2.1v-17.2h2.1v7C609.9,542.5,611.4,541.7,613.4,541.7z M613.2,552.6
			c1.2,0,2.3-0.4,3.1-1.3c0.8-0.8,1.3-1.9,1.3-3.1c0-1.2-0.4-2.3-1.3-3.1c-0.8-0.8-1.9-1.3-3.1-1.3c-1.2,0-2.3,0.4-3.1,1.3
			c-0.8,0.8-1.3,1.9-1.3,3.1c0,1.2,0.4,2.3,1.3,3.1C610.9,552.1,611.9,552.6,613.2,552.6z"/>
		<path class="st10" d="M630.4,544.1c0.7-1.5,2-2.3,3.8-2.3v2.2c-1,0-1.9,0.2-2.7,0.8c-0.8,0.6-1.1,1.6-1.1,2.9v6.5h-2.1V542h2.1
			V544.1z"/>
		<path class="st10" d="M637.2,549.1c0.2,1.1,0.7,1.9,1.5,2.5c0.8,0.6,1.8,0.9,2.9,0.9c1.6,0,2.8-0.6,3.5-1.8l1.8,1
			c-1.2,1.8-3,2.8-5.4,2.8c-1.9,0-3.5-0.6-4.7-1.8c-1.2-1.2-1.8-2.8-1.8-4.6c0-1.8,0.6-3.4,1.8-4.6c1.2-1.2,2.7-1.8,4.6-1.8
			c1.8,0,3.3,0.6,4.4,1.9c1.1,1.3,1.7,2.8,1.7,4.6c0,0.3,0,0.6-0.1,1H637.2z M641.4,543.7c-1.1,0-2.1,0.3-2.8,1
			c-0.8,0.6-1.2,1.5-1.4,2.6h8.2c-0.2-1.2-0.6-2-1.4-2.6C643.3,544,642.4,543.7,641.4,543.7z"/>
		<path class="st10" d="M660.1,542h2.1v12.3h-2.1v-2.1c-1.1,1.6-2.6,2.4-4.6,2.4c-1.7,0-3.2-0.6-4.4-1.9c-1.2-1.3-1.8-2.8-1.8-4.6
			c0-1.8,0.6-3.3,1.8-4.6c1.2-1.3,2.7-1.9,4.4-1.9c2,0,3.6,0.8,4.6,2.4V542z M655.7,552.6c1.2,0,2.3-0.4,3.1-1.3
			c0.8-0.8,1.3-1.9,1.3-3.1c0-1.2-0.4-2.3-1.3-3.1c-0.8-0.8-1.9-1.3-3.1-1.3c-1.2,0-2.3,0.4-3.1,1.3c-0.8,0.8-1.3,1.9-1.3,3.1
			c0,1.2,0.4,2.3,1.3,3.1C653.5,552.1,654.5,552.6,655.7,552.6z"/>
		<path class="st10" d="M665.5,554.3v-17.9h2.1v17.9H665.5z"/>
		<path class="st10" d="M670.8,554.3v-17.9h2.1v17.9H670.8z"/>
		<path class="st10" d="M684.8,542h2.3l-5,13c-0.5,1.4-1.3,2.4-2.2,3.2c-0.9,0.7-2,1-3.2,1v-2c1.5,0.1,2.6-0.7,3.3-2.5l0.2-0.5
			l-5.3-12.2h2.3l4.1,9.4L684.8,542z"/>
		<path class="st10" d="M709.4,542h2l-3.6,12.3h-2.2l-2.9-9.2l-2.9,9.2h-2.3L694,542h2.2l2.7,9.3l2.9-9.3h2.1l2.9,9.3L709.4,542z"/>
		<path class="st10" d="M714.9,549.1c0.2,1.1,0.7,1.9,1.5,2.5c0.8,0.6,1.8,0.9,2.9,0.9c1.6,0,2.8-0.6,3.5-1.8l1.8,1
			c-1.2,1.8-3,2.8-5.4,2.8c-1.9,0-3.5-0.6-4.7-1.8c-1.2-1.2-1.8-2.8-1.8-4.6c0-1.8,0.6-3.4,1.8-4.6c1.2-1.2,2.7-1.8,4.6-1.8
			c1.8,0,3.3,0.6,4.4,1.9c1.1,1.3,1.7,2.8,1.7,4.6c0,0.3,0,0.6-0.1,1H714.9z M719.1,543.7c-1.1,0-2.1,0.3-2.8,1
			c-0.8,0.6-1.2,1.5-1.4,2.6h8.2c-0.2-1.2-0.6-2-1.4-2.6C720.9,544,720.1,543.7,719.1,543.7z"/>
		<path class="st10" d="M727.7,554.3v-17.9h2.1v17.9H727.7z"/>
		<path class="st10" d="M733.1,554.3v-17.9h2.1v17.9H733.1z"/>
	</g>
</g>
</svg>
